#!OML:ASF E:/inclinewalkrobotboard/Project1/Captureday1/Session1/subject1.ASF
:FULLY-SPECIFIED
:DEGREES
376
root 0 0 0 1.83588779716202 -3.8304915845494207 2.903791635490695
lowerback 12.14987006574675 0.8981608114308475 -0.8240185864191011
upperback -4.111763148756968 1.0537516194524483 -0.8126292942383276
thorax -11.244411366488624 0.4934778116930728 -0.6378414754899606
lowerneck -6.964632701994853 1.3867418479843912 4.3100165391398155
upperneck 19.615914350676903 2.854391472024007 -8.261279269484557
head 7.306680623181064 0.9742649211867199 -3.198589627317598
rclavicle -4.447670814290652E-16 -1.869149309178435E-15
rhumerus 15.821927252080302 11.148136123712524 -50.03687392123235
rradius 67.60679758214009
rwrist 25.271367143248163
rhand -32.89901302017195 -49.22372221980954
rfingers 7.125019999999963
rthumb -6.160618812081573 -79.36889091220986
lclavicle 6.254243942487368E-16 -2.5439967173581453E-16
lhumerus 17.333971881435943 -12.60844569855955 49.04383939682238
lradius 66.59860248998152
lwrist -18.856727136603425
lhand -43.97315318354827 -61.45393368164508
lfingers 7.125019999999956
lthumb -16.811759418011604 -32.00533264043638
rfemur -33.1850699126482 -2.3073830969501703 14.477135661768742
rtibia 61.00080685864337
rfoot -9.962892179476961 -12.983676647078775
rtoes -10.50830720406486
lfemur -16.767431972375125 4.075333773287636 -15.278179284294309
ltibia 64.62657134219067
lfoot -9.705957887540947 -8.720774115142474
ltoes -17.242005015900276
377
root 0 0 0 1.6103562879315811 -3.678130135002011 3.0293257633413035
lowerback 12.272616840169606 0.7941684910511342 -0.9831736670477734
upperback -4.057468762832676 0.89931108179022 -0.7755684767924763
thorax -11.274598051427716 0.42331987729251463 -0.4867952732971467
lowerneck -7.0596191442559695 1.4197014677722921 4.30425644819768
upperneck 19.592556803005657 2.9057002981435724 -8.290578572455818
head 7.313377759167896 0.9940118510736357 -3.203805928919242
rclavicle -6.287997086022367E-16 -2.1008415592589967E-15
rhumerus 15.805148740489008 11.12785032780832 -50.024110580198965
rradius 67.59487275450793
rwrist 25.284518886103132
rhand -32.89937561574102 -49.22907809614586
rfingers 7.125019999999963
rthumb -6.161025597046239 -79.36876331419356
lclavicle 3.4528368945813094E-16 -3.77864741933301E-16
lhumerus 17.467996112027635 -12.807074571519804 49.078141093474144
lradius 66.75235509408533
lwrist -18.76727492535371
lhand -43.9984327642784 -61.396151195005196
lfingers 7.125019999999957
lthumb -16.836640110781257 -31.951273918340195
rfemur -34.96089704871808 -2.5296415873848233 14.451981293472128
rtibia 61.950427038904024
rfoot -10.397598250046737 -13.32107647936398
rtoes -8.686901801231652
lfemur -18.22255354541351 5.0200925308969 -15.59588340457378
ltibia 68.75816806684134
lfoot -8.430563383135462 -9.172839851400758
ltoes -13.983558746744478
378
root 0 0 0 1.5805900008538494 -3.6104787574532264 3.047037761629312
lowerback 12.335639436683667 0.7388957494159591 -1.0304280811931248
upperback -4.029424512747204 0.8230603662841485 -0.7427004228244835
thorax -11.28621722256973 0.3875978130232688 -0.41618917183967824
lowerneck -7.128235872006666 1.4395614183330954 4.29930712084063
upperneck 19.517068852553912 2.9374339410692487 -8.302005019264488
head 7.298218794168541 1.0071248179116967 -3.2038615117378324
rclavicle -8.270880160249015E-16 -2.168303664154589E-15
rhumerus 16.047104085030625 11.457966011380273 -50.21963329750977
rradius 67.79016414963812
rwrist 25.06271003557962
rhand -32.9085122328891 -49.21489551282595
rfingers 7.125019999999963
rthumb -6.171165201066195 -79.3359502237414
lclavicle 2.353193801264571E-16 -3.72254969167865E-16
lhumerus 17.616254115832675 -13.10314105463162 49.17245309739566
lradius 66.94449570184631
lwrist -18.600451808347685
lhand -44.01056119678033 -61.184427782461384
lfingers 7.125019999999957
lthumb -16.848202673080035 -31.743175148143127
rfemur -36.14816951630563 -2.4228881280524206 14.536731469427462
rtibia 60.35320205349866
rfoot -12.499022129933003 -14.234573742947665
rtoes -8.479361467128802
lfemur -20.239792576246487 5.359613608668319 -15.696861919730654
ltibia 69.22936889855794
lfoot -9.961341269055673 -7.792771461333562
ltoes -12.133492096284819
379
root 0 0 0 1.7234526461556827 -3.6316816070837232 2.9529195071431347
lowerback 12.340206088445719 0.7432712052570088 -0.9491934737734579
upperback -4.033857505779977 0.8410521299826433 -0.7202554383796712
thorax -11.287240509553609 0.39385120553451797 -0.4438967071837003
lowerneck -7.153894353306848 1.4507841993628292 4.307842989843573
upperneck 19.393918827986 2.9552637219316953 -8.307645918614364
head 7.260120314863622 1.0159689557876739 -3.204380831606988
rclavicle -1.0504376136323209E-15 -2.074878332827183E-15
rhumerus 16.477974788093853 12.025210707317052 -50.53677897866196
rradius 68.13601938208207
rwrist 24.700142410928535
rhand -32.93027493889049 -49.21598985093128
rfingers 7.125019999999964
rthumb -6.19404338838091 -79.31481434836618
lclavicle 2.5028414846188555E-16 -2.346903419327433E-16
lhumerus 17.789191631561202 -13.444505173607824 49.2808324527755
lradius 67.16439407778101
lwrist -18.40876407624366
lhand -44.02226126000639 -60.92862862378976
lfingers 7.1250199999999575
lthumb -16.858064113629553 -31.49191566200651
rfemur -36.33118992111639 -2.0484460251205023 14.86914385497647
rtibia 57.105602853080214
rfoot -15.714286841715152 -15.359606146030387
rtoes -9.566566980842836
lfemur -22.346045337703618 5.203796837440559 -15.635356836909677
ltibia 66.8602679199935
lfoot -13.274876983886632 -5.32741620361455
ltoes -11.715114456278723
